<svg width="46" height="50" viewBox="0 0 46 50" fill="none" xmlns="http://www.w3.org/2000/svg">
<path d="M38 0H8C3.85 0 0.5 3.325 0.5 7.425V34.7C0.5 38.8 3.85 42.125 8 42.125H9.9C11.9 42.125 13.8 42.9 15.2 44.3L19.475 48.525C21.425 50.45 24.6 50.45 26.55 48.525L30.825 44.3C32.225 42.9 34.15 42.125 36.125 42.125H38C42.15 42.125 45.5 38.8 45.5 34.7V7.425C45.5 3.325 42.15 0 38 0ZM18.95 27.525C19.975 27.525 20.825 28.375 20.825 29.4C20.825 30.425 19.975 31.275 18.95 31.275H12.25C11.15 31.275 10.125 30.75 9.475 29.85C8.85 29 8.7 27.95 9 26.95C9.875 24.275 12.025 22.825 13.925 21.525C15.925 20.175 17.05 19.325 17.05 17.875C17.05 16.575 16 15.525 14.7 15.525C13.4 15.525 12.375 16.6 12.375 17.9C12.375 18.925 11.525 19.775 10.5 19.775C9.475 19.775 8.625 18.925 8.625 17.9C8.625 14.55 11.35 11.8 14.725 11.8C18.1 11.8 20.825 14.525 20.825 17.9C20.825 21.425 18.175 23.225 16.05 24.675C14.725 25.575 13.475 26.425 12.85 27.55H18.95V27.525ZM35.5 27.7H34.975V29.425C34.975 30.45 34.125 31.3 33.1 31.3C32.075 31.3 31.225 30.45 31.225 29.425V27.7H26.325C26.325 27.7 26.325 27.7 26.3 27.7C25.075 27.7 23.95 27.05 23.325 26C22.7 24.925 22.7 23.6 23.325 22.55C25.025 19.625 27 16.3 28.8 13.4C29.6 12.125 31.125 11.55 32.55 11.95C33.975 12.375 34.975 13.675 34.95 15.175V23.975H35.5C36.525 23.975 37.375 24.825 37.375 25.85C37.375 26.875 36.525 27.7 35.5 27.7Z" fill="#23A6F0"/>
</svg>
