<svg width="60" height="60" viewBox="0 0 60 60" fill="none" xmlns="http://www.w3.org/2000/svg">
<path fill-rule="evenodd" clip-rule="evenodd" d="M45.8817 0V17.2233L26.2584 36.8465C25.2702 37.8348 24.7055 39.1759 24.7055 40.5876V52.9404H37.0583C38.47 52.9404 39.8112 52.3757 40.7994 51.3875L45.8817 46.3052V59.9991H0V0H45.8817ZM49.9263 18.1656C50.6181 17.4739 51.7333 17.4739 52.4251 18.1656L59.4838 25.2243C60.1721 25.9126 60.1721 27.0278 59.4838 27.7196L38.3077 48.8957C37.9759 49.224 37.5277 49.4111 37.0583 49.4111H28.2349V40.5876C28.2349 40.1182 28.4219 39.67 28.7502 39.3418L49.9263 18.1656ZM21.1762 35.2936H10.5881V38.823H21.1762L21.1762 35.2936ZM28.2349 28.2349H10.5881V31.7642H28.2348V28.2349H28.2349ZM51.1757 21.9067L48.3769 24.7055L52.9404 29.269L55.7392 26.4702L51.1757 21.9067ZM35.2936 10.5881H10.5881V21.1762H35.2936V10.5881L35.2936 10.5881Z" fill="#23A6F0"/>
</svg>
